<svg xmlns="http://www.w3.org/2000/svg" viewBox="0 0 24 24" fill="none" stroke="#10b981" stroke-width="2" stroke-linecap="round" stroke-linejoin="round">
  <!-- Pest Shield / Body -->
  <path d="M12 22s8-4 8-10V5l-8-3-8 3v7c0 6 8 10 8 10z" fill="#10b981" fill-opacity="0.1"/>
  <!-- Bug Legs/Antennae -->
  <path d="M8 8H6"/>
  <path d="M18 8h-2"/>
  <path d="M8 12H5"/>
  <path d="M19 12h-3"/>
  <path d="M8 16H6"/>
  <path d="M18 16h-2"/>
  <!-- Bug Body Inside Shield -->
  <rect x="10" y="8" width="4" height="8" rx="2" fill="#10b981"/>
  <circle cx="12" cy="6" r="1.5" fill="#10b981"/>
  <!-- Antennae -->
  <path d="M10 4.5c-.5-.5-1-1-2-1"/>
  <path d="M14 4.5c.5-.5 1-1 2-1"/>
</svg>
