<svg xmlns="http://www.w3.org/2000/svg" viewBox="0 0 24 24" fill="none" stroke="#e11d48" stroke-width="2" stroke-linecap="round" stroke-linejoin="round">
  <rect x="8" y="6" width="8" height="14" rx="4" />
  <path d="M12 2v4" />
  <path d="M6 10h2" />
  <path d="M16 10h2" />
  <path d="M6 14h2" />
  <path d="M16 14h2" />
  <path d="M6 18h2" />
  <path d="M16 18h2" />
  <path d="M9 4a3 3 0 0 0-6 2" />
  <path d="M15 4a3 3 0 0 1 6 2" />
  <path d="M12 6c-2 0-3 1-3 2v2c0 1 1 2 3 2s3-1 3-2V8c0-1-1-2-3-2z" fill="#e11d48" />
  <path d="M10 22L8 18" />
  <path d="M14 22l2-4" />
</svg>
